<?xml version="1.0" standalone="no"?><svg xmlns="http://www.w3.org/2000/svg" viewBox="0 0 1440 320"><path fill="#804000" fill-opacity="1" d="M0,288L30,266.7C60,245,120,203,180,202.7C240,203,300,245,360,261.3C420,277,480,267,540,234.7C600,203,660,149,720,122.7C780,96,840,96,900,96C960,96,1020,96,1080,101.3C1140,107,1200,117,1260,101.3C1320,85,1380,43,1410,21.3L1440,0L1440,320L1410,320C1380,320,1320,320,1260,320C1200,320,1140,320,1080,320C1020,320,960,320,900,320C840,320,780,320,720,320C660,320,600,320,540,320C480,320,420,320,360,320C300,320,240,320,180,320C120,320,60,320,30,320L0,320Z"></path></svg>