<?xml version="1.0" standalone="no"?><svg xmlns="http://www.w3.org/2000/svg" viewBox="0 0 1440 320"><path fill=" #804000" fill-opacity="1" d="M0,96L7.5,96C15,96,30,96,45,96C60,96,75,96,90,106.7C105,117,120,139,135,176C150,213,165,267,180,266.7C195,267,210,213,225,181.3C240,149,255,139,270,149.3C285,160,300,192,315,208C330,224,345,224,360,208C375,192,390,160,405,133.3C420,107,435,85,450,85.3C465,85,480,107,495,122.7C510,139,525,149,540,165.3C555,181,570,203,585,213.3C600,224,615,224,630,202.7C645,181,660,139,675,101.3C690,64,705,32,720,69.3C735,107,750,213,765,266.7C780,320,795,320,810,293.3C825,267,840,213,855,208C870,203,885,245,900,224C915,203,930,117,945,69.3C960,21,975,11,990,53.3C1005,96,1020,192,1035,208C1050,224,1065,160,1080,112C1095,64,1110,32,1125,32C1140,32,1155,64,1170,90.7C1185,117,1200,139,1215,128C1230,117,1245,75,1260,69.3C1275,64,1290,96,1305,96C1320,96,1335,64,1350,48C1365,32,1380,32,1395,42.7C1410,53,1425,75,1433,85.3L1440,96L1440,320L1432.5,320C1425,320,1410,320,1395,320C1380,320,1365,320,1350,320C1335,320,1320,320,1305,320C1290,320,1275,320,1260,320C1245,320,1230,320,1215,320C1200,320,1185,320,1170,320C1155,320,1140,320,1125,320C1110,320,1095,320,1080,320C1065,320,1050,320,1035,320C1020,320,1005,320,990,320C975,320,960,320,945,320C930,320,915,320,900,320C885,320,870,320,855,320C840,320,825,320,810,320C795,320,780,320,765,320C750,320,735,320,720,320C705,320,690,320,675,320C660,320,645,320,630,320C615,320,600,320,585,320C570,320,555,320,540,320C525,320,510,320,495,320C480,320,465,320,450,320C435,320,420,320,405,320C390,320,375,320,360,320C345,320,330,320,315,320C300,320,285,320,270,320C255,320,240,320,225,320C210,320,195,320,180,320C165,320,150,320,135,320C120,320,105,320,90,320C75,320,60,320,45,320C30,320,15,320,8,320L0,320Z"></path></svg>