<?xml version="1.0" standalone="no"?><svg xmlns="http://www.w3.org/2000/svg" viewBox="0 0 1440 320"><path fill=" #804000" fill-opacity="1" d="M0,96L7.5,96C15,96,30,96,45,96C60,96,75,96,90,106.7C105,117,120,139,135,176C150,213,165,267,180,266.7C195,267,210,213,225,181.3C240,149,255,139,270,149.3C285,160,300,192,315,208C330,224,345,224,360,208C375,192,390,160,405,133.3C420,107,435,85,450,85.3C465,85,480,107,495,122.7C510,139,525,149,540,165.3C555,181,570,203,585,213.3C600,224,615,224,630,202.7C645,181,660,139,675,101.3C690,64,705,32,720,69.3C735,107,750,213,765,266.7C780,320,795,320,810,293.3C825,267,840,213,855,208C870,203,885,245,900,224C915,203,930,117,945,69.3C960,21,975,11,990,53.3C1005,96,1020,192,1035,208C1050,224,1065,160,1080,112C1095,64,1110,32,1125,32C1140,32,1155,64,1170,90.7C1185,117,1200,139,1215,128C1230,117,1245,75,1260,69.3C1275,64,1290,96,1305,96C1320,96,1335,64,1350,48C1365,32,1380,32,1395,42.7C1410,53,1425,75,1433,85.3L1440,96L1440,0L1432.5,0C1425,0,1410,0,1395,0C1380,0,1365,0,1350,0C1335,0,1320,0,1305,0C1290,0,1275,0,1260,0C1245,0,1230,0,1215,0C1200,0,1185,0,1170,0C1155,0,1140,0,1125,0C1110,0,1095,0,1080,0C1065,0,1050,0,1035,0C1020,0,1005,0,990,0C975,0,960,0,945,0C930,0,915,0,900,0C885,0,870,0,855,0C840,0,825,0,810,0C795,0,780,0,765,0C750,0,735,0,720,0C705,0,690,0,675,0C660,0,645,0,630,0C615,0,600,0,585,0C570,0,555,0,540,0C525,0,510,0,495,0C480,0,465,0,450,0C435,0,420,0,405,0C390,0,375,0,360,0C345,0,330,0,315,0C300,0,285,0,270,0C255,0,240,0,225,0C210,0,195,0,180,0C165,0,150,0,135,0C120,0,105,0,90,0C75,0,60,0,45,0C30,0,15,0,8,0L0,0Z"></path></svg>