<svg id="visual" viewBox="0 0 1900 940" width="1900" height="940" xmlns="http://www.w3.org/2000/svg" xmlns:xlink="http://www.w3.org/1999/xlink" version="1.1"><rect x="0" y="0" width="1900" height="940" fill="#111111"></rect><path d="M672 0L672.3 22.3C672.7 44.7 673.3 89.3 679.2 134.2C685 179 696 224 700.7 268.8C705.3 313.7 703.7 358.3 693 403C682.3 447.7 662.7 492.3 655.8 537C649 581.7 655 626.3 638.2 671.2C621.3 716 581.7 761 572.2 805.8C562.7 850.7 583.3 895.3 593.7 917.7L604 940L0 940L0 917.7C0 895.3 0 850.7 0 805.8C0 761 0 716 0 671.2C0 626.3 0 581.7 0 537C0 492.3 0 447.7 0 403C0 358.3 0 313.7 0 268.8C0 224 0 179 0 134.2C0 89.3 0 44.7 0 22.3L0 0Z" fill="#804000" stroke-linecap="round" stroke-linejoin="miter"></path></svg>